<?xml version="1.0" standalone="no"?>
<!DOCTYPE svg PUBLIC "-//W3C//DTD SVG 20010904//EN"
 "http://www.w3.org/TR/2001/REC-SVG-20010904/DTD/svg10.dtd">
<svg version="1.0" xmlns="http://www.w3.org/2000/svg"
 width="700.000000pt" height="700.000000pt" viewBox="0 0 700.000000 700.000000"
 preserveAspectRatio="xMidYMid meet">
<metadata>
Created by potrace 1.14, written by Peter Selinger 2001-2017
</metadata>
<g transform="translate(0.000000,700.000000) scale(0.100000,-0.100000)"
fill="#000000" stroke="none">
<path d="M3462 6206 c-30 -114 -118 -261 -213 -356 -158 -158 -398 -265 -664
-295 -33 -4 -69 -9 -79 -11 -131 -25 -670 -24 -976 1 -30 2 -81 7 -112 9 -31
3 -74 7 -95 10 -21 3 -67 8 -103 11 -36 3 -92 10 -125 14 -68 10 -50 20 -188
-110 l-68 -64 33 -36 c18 -19 43 -47 56 -61 l23 -25 -87 -229 c-47 -126 -131
-348 -186 -494 -56 -146 -107 -281 -114 -300 -7 -19 -87 -233 -179 -475 l-167
-440 6 -85 c26 -426 377 -731 846 -734 148 -1 218 9 338 50 193 64 351 193
445 361 77 140 119 359 83 441 -16 38 -369 904 -542 1332 -53 129 -100 244
-105 255 -23 51 -98 239 -96 241 5 6 101 17 252 29 39 4 84 8 100 10 68 9 351
19 510 19 325 0 560 -27 745 -86 88 -28 226 -97 304 -152 70 -50 190 -172 232
-236 26 -39 26 -42 14 -102 -7 -35 -14 -74 -16 -88 -2 -14 -11 -59 -19 -100
-8 -41 -23 -127 -35 -190 -11 -63 -22 -126 -25 -140 -8 -40 -27 -143 -31 -165
-1 -11 -5 -30 -8 -41 -2 -12 -7 -37 -10 -55 -12 -71 -52 -292 -61 -339 -3 -14
-8 -41 -11 -60 -4 -19 -8 -44 -10 -55 -2 -11 -11 -56 -19 -100 -17 -92 -20
-112 -40 -215 -20 -110 -34 -182 -39 -210 -11 -66 -52 -285 -61 -330 -3 -14
-8 -43 -11 -65 -3 -22 -8 -43 -9 -46 -2 -3 -7 -28 -11 -55 -3 -27 -8 -52 -10
-55 -1 -3 -6 -28 -9 -55 -4 -27 -12 -74 -19 -104 -7 -30 -12 -59 -11 -65 1
-18 22 -49 155 -235 71 -101 130 -187 130 -192 0 -4 -6 -8 -12 -8 -26 0 -171
-102 -231 -163 -71 -71 -145 -178 -182 -261 -26 -59 -70 -191 -80 -242 -4 -22
-11 -30 -28 -30 -22 -1 -58 -6 -192 -25 -38 -6 -86 -13 -105 -16 -19 -2 -97
-18 -173 -34 -471 -98 -752 -237 -805 -396 -6 -18 -8 -34 -4 -37 4 -2 965 -4
2135 -4 l2128 0 -6 31 c-33 161 -345 315 -830 411 -171 34 -267 50 -377 61
-95 10 -92 8 -108 77 -42 191 -150 382 -287 509 -50 45 -161 120 -197 132 -8
3 17 51 34 67 3 3 59 81 124 174 l119 169 -18 101 c-10 56 -19 110 -22 121 -7
32 -40 214 -49 265 -2 14 -7 36 -9 50 -3 14 -8 36 -10 50 -6 29 -25 136 -30
165 -2 11 -11 61 -20 110 -10 50 -19 101 -21 115 -3 14 -12 63 -20 110 -9 47
-18 96 -20 110 -3 14 -7 32 -9 40 -2 8 -7 38 -11 65 -3 28 -8 52 -9 55 -2 3
-11 46 -19 95 -9 50 -18 101 -21 115 -3 14 -16 86 -29 160 -33 177 -29 157
-70 375 -19 105 -37 201 -39 215 -3 14 -17 90 -31 169 l-27 143 42 55 c125
165 319 295 536 358 47 14 97 27 112 30 90 17 241 37 331 42 194 13 616 6 770
-12 19 -2 69 -6 110 -10 110 -8 169 -14 222 -23 l46 -7 -33 -85 c-37 -96 -140
-369 -440 -1165 -113 -302 -213 -563 -220 -580 -14 -29 -14 -111 0 -192 68
-389 401 -652 830 -657 158 -1 211 7 349 51 275 89 468 303 525 583 6 30 13
82 15 115 4 68 11 50 -172 495 -66 162 -173 423 -237 580 -63 157 -120 294
-125 305 -7 16 -152 372 -232 571 l-21 51 59 57 59 56 -55 53 c-31 28 -78 73
-106 98 l-50 46 -57 -7 c-31 -5 -89 -11 -129 -15 -40 -4 -89 -9 -108 -11 -19
-2 -62 -6 -95 -10 -33 -3 -78 -7 -100 -9 -254 -24 -862 -25 -980 -2 -11 3 -47
8 -80 12 -92 12 -96 12 -168 29 -312 75 -546 252 -667 508 -16 33 -34 82 -41
109 -7 27 -15 49 -19 49 -3 0 -11 -20 -18 -44z m-2217 -1801 c22 -49 147 -357
162 -399 8 -22 22 -58 32 -80 10 -23 58 -138 106 -256 48 -118 93 -230 102
-248 8 -19 12 -36 9 -39 -3 -4 -265 -7 -581 -7 -508 -1 -575 1 -569 14 3 8 53
141 111 295 58 154 113 300 123 325 10 25 30 79 45 120 15 41 43 113 60 160
18 47 72 188 120 315 48 126 89 234 92 238 3 5 44 -85 90 -199 46 -115 90
-222 98 -239z m4978 -300 c157 -385 287 -706 289 -714 2 -12 -86 -14 -570 -15
-316 -1 -576 2 -578 6 -4 5 228 629 311 838 8 19 48 127 90 240 150 400 147
394 161 368 6 -13 140 -338 297 -723z"/>
</g>
</svg>
